<?xml version="1.0" standalone="no"?>
<!DOCTYPE svg PUBLIC "-//W3C//DTD SVG 20010904//EN"
 "http://www.w3.org/TR/2001/REC-SVG-20010904/DTD/svg10.dtd">
<svg version="1.0" xmlns="http://www.w3.org/2000/svg"
 width="1024.000000pt" height="1024.000000pt" viewBox="0 0 1024.000000 1024.000000"
 preserveAspectRatio="xMidYMid meet">
<metadata>
Created by potrace 1.14, written by Peter Selinger 2001-2017
</metadata>
<g transform="translate(0.000000,1024.000000) scale(0.100000,-0.100000)"
fill="#000000" stroke="none">
<path d="M4919 10236 c-2 -2 -42 -7 -89 -10 -47 -4 -98 -9 -115 -12 -16 -2
-46 -6 -65 -9 -42 -5 -76 -11 -150 -26 -30 -6 -64 -12 -75 -14 -11 -2 -35 -8
-54 -14 -18 -6 -36 -10 -40 -9 -3 1 -13 -1 -21 -4 -26 -10 -195 -60 -195 -58
0 3 -103 -36 -167 -64 -20 -9 -39 -16 -43 -16 -19 0 -331 -155 -405 -201 -14
-9 -56 -35 -95 -59 -185 -116 -390 -283 -560 -456 -158 -161 -236 -256 -393
-481 -12 -18 -22 -37 -22 -43 0 -5 -4 -10 -9 -10 -5 0 -14 -13 -21 -30 -7 -16
-16 -30 -20 -30 -4 0 -11 -11 -14 -25 -4 -14 -11 -25 -16 -25 -6 0 -10 -9 -10
-19 0 -11 -5 -23 -11 -26 -10 -7 -132 -246 -129 -255 1 -3 -8 -11 -19 -19 -14
-9 -21 -10 -21 -2 0 7 -8 8 -25 1 -14 -5 -25 -6 -25 -2 0 4 -29 7 -65 7 -36 0
-65 -2 -65 -5 0 -3 -33 -6 -73 -6 -162 -3 -293 -126 -303 -286 -2 -32 -6 -63
-9 -68 -3 -5 -1 -11 4 -14 6 -4 6 -18 1 -36 -5 -17 -5 -30 0 -30 4 0 4 -16 0
-35 -4 -19 -4 -37 0 -40 5 -3 5 -19 0 -35 -5 -18 -5 -32 1 -36 5 -3 7 -10 3
-15 -8 -14 -10 -99 -2 -99 4 0 3 -13 -2 -30 -5 -16 -6 -30 -2 -30 8 0 7 -68
-1 -76 -3 -3 -2 -17 3 -30 6 -14 6 -24 0 -24 -5 0 -5 -12 0 -30 5 -17 5 -30 0
-30 -5 0 -5 -13 0 -30 5 -17 5 -30 0 -30 -5 0 -5 -13 0 -30 5 -17 5 -30 0 -30
-5 0 -5 -12 -1 -28 5 -15 5 -37 0 -49 -5 -13 -4 -25 1 -28 6 -4 7 -13 1 -24
-5 -9 -6 -23 -2 -29 4 -7 4 -35 1 -62 -4 -28 -3 -50 1 -50 4 0 4 -13 -1 -30
-5 -16 -6 -30 -2 -30 8 0 7 -68 -1 -76 -3 -3 -2 -17 3 -30 6 -14 6 -24 0 -24
-5 0 -5 -12 0 -30 5 -17 5 -30 0 -30 -5 0 -5 -13 0 -30 5 -17 5 -30 0 -30 -5
0 -5 -13 0 -30 5 -17 5 -30 0 -30 -5 0 -5 -12 -1 -28 5 -15 5 -37 0 -49 -5
-13 -4 -25 1 -28 6 -4 7 -13 1 -24 -5 -9 -6 -23 -2 -30 5 -7 5 -30 1 -51 -4
-21 -4 -44 1 -51 4 -7 4 -20 -1 -29 -4 -8 -4 -22 0 -31 5 -8 5 -21 0 -28 -4
-8 -4 -27 0 -42 5 -16 5 -29 0 -29 -5 0 -5 -13 0 -30 5 -19 5 -30 -1 -30 -6 0
-8 -4 -5 -9 3 -5 8 -37 10 -71 3 -35 10 -68 16 -74 5 -5 10 -18 10 -27 0 -9 7
-22 15 -29 9 -7 13 -15 10 -18 -9 -9 75 -82 124 -106 42 -22 138 -41 181 -38
36 4 103 1 111 -4 5 -3 9 0 9 6 0 6 4 9 9 6 5 -3 30 -7 56 -8 l46 -1 40 -85
c21 -46 39 -88 39 -92 0 -5 4 -10 8 -12 4 -1 23 -32 41 -68 18 -36 40 -72 47
-81 8 -8 14 -19 14 -23 0 -7 120 -192 143 -221 4 -5 28 -37 52 -70 48 -63 51
-67 130 -160 84 -98 244 -256 355 -349 118 -99 140 -117 162 -131 9 -5 53 -36
99 -68 45 -32 94 -65 108 -73 14 -8 42 -24 61 -36 98 -59 221 -123 305 -160
39 -16 84 -37 100 -45 17 -8 37 -16 45 -18 8 -2 58 -20 110 -40 52 -19 102
-37 110 -39 8 -1 22 -6 30 -9 23 -9 211 -57 250 -63 19 -3 38 -8 42 -10 4 -3
31 -7 60 -10 28 -3 55 -7 59 -10 4 -2 27 -7 51 -10 24 -2 57 -7 73 -9 189 -27
597 -28 785 0 19 2 53 7 75 9 22 3 51 7 65 10 14 3 54 10 89 16 36 6 99 20
140 31 42 11 83 21 91 23 29 7 183 57 230 74 8 3 17 6 20 6 12 3 131 51 190
78 36 17 82 37 103 45 20 8 37 19 37 24 0 5 8 9 18 9 10 0 27 7 38 15 10 8 46
28 80 44 33 17 67 37 74 46 7 8 16 15 21 15 8 0 167 101 196 125 7 6 23 18 35
27 413 309 725 677 950 1118 32 63 62 120 66 125 4 6 8 17 10 25 6 28 30 38
72 30 22 -4 43 -3 46 1 3 5 9 7 14 4 15 -9 195 -4 240 7 72 18 163 96 197 169
19 40 39 141 34 177 0 6 -1 19 -1 27 0 8 0 22 0 30 0 8 0 22 0 30 0 8 0 22 0
30 0 8 0 22 0 30 0 8 0 22 0 30 0 8 0 22 0 30 0 8 0 22 0 30 0 8 0 22 0 30 0
8 0 22 0 30 0 8 0 22 0 30 0 8 0 22 0 30 0 8 0 22 0 30 0 8 0 22 0 30 0 8 0
22 0 30 0 8 0 22 0 30 0 8 0 22 0 30 0 8 0 21 0 28 0 6 -1 26 -3 42 -1 17 1
40 5 52 4 12 3 25 -2 28 -5 3 -5 18 0 35 5 17 5 30 0 30 -4 0 -4 16 0 35 4 19
4 37 0 40 -5 3 -5 19 0 35 5 17 5 32 0 35 -5 3 -6 13 -3 22 8 21 9 64 1 84 -3
9 -2 22 2 29 5 8 5 21 0 30 -5 9 -5 22 0 29 4 8 4 27 0 42 -5 16 -5 29 0 29 5
0 5 13 0 30 -5 17 -5 30 0 30 5 0 5 13 0 30 -5 17 -5 30 0 30 5 0 5 13 0 30
-5 17 -5 30 0 30 5 0 5 13 0 30 -5 17 -6 30 -2 30 4 0 7 16 7 35 0 19 -3 35
-7 35 -4 0 -3 14 2 30 5 17 5 30 1 30 -4 0 -5 22 -1 50 3 27 3 55 -1 62 -4 6
-4 19 1 28 4 8 4 22 0 31 -5 8 -5 21 0 28 4 8 4 27 0 42 -5 16 -5 29 0 29 5 0
5 13 0 30 -5 19 -5 30 1 30 6 0 8 4 5 9 -3 5 -8 37 -10 71 -3 35 -10 68 -16
74 -5 5 -10 18 -10 27 0 9 -7 22 -15 29 -9 7 -13 15 -10 18 9 9 -81 86 -130
111 -27 13 -67 24 -96 25 -27 0 -49 4 -49 8 0 4 -11 3 -25 -2 -16 -6 -25 -6
-25 0 0 6 -9 6 -25 0 -15 -6 -26 -6 -30 0 -4 7 -13 6 -25 0 -13 -7 -21 -7 -25
0 -4 7 -12 7 -24 0 -10 -5 -20 -7 -22 -5 -3 2 -17 6 -33 9 -29 5 -41 12 -41
24 -1 4 -6 17 -13 30 -7 12 -9 22 -5 22 4 0 3 4 -2 8 -6 4 -19 27 -30 52 -11
25 -22 47 -25 50 -3 3 -21 34 -39 70 -18 36 -40 72 -47 81 -8 8 -14 19 -14 23
0 7 -128 205 -140 216 -3 3 -21 28 -40 55 -19 28 -39 55 -45 60 -6 6 -29 33
-50 60 -99 125 -277 304 -445 445 -46 38 -58 48 -105 80 -27 19 -54 40 -60 46
-11 11 -187 128 -195 129 -5 1 -46 25 -90 54 -39 26 -318 161 -333 161 -7 0
-17 4 -22 8 -9 8 -172 71 -198 76 -7 2 -19 6 -27 9 -19 8 -188 57 -215 63 -11
2 -51 11 -90 20 -38 9 -83 18 -100 19 -16 2 -30 4 -30 5 0 4 -120 23 -157 24
-10 0 -18 3 -18 6 0 6 -36 8 -341 14 -130 3 -238 4 -240 2z m-1214 -1916 c11
4 30 4 42 -1 14 -5 25 -4 29 2 4 7 10 7 16 1 5 -5 27 -6 49 -2 22 4 42 4 45
-1 2 -4 16 -4 29 1 15 6 25 6 25 0 0 -5 12 -5 28 -1 15 5 37 5 49 0 13 -5 25
-4 28 2 4 6 13 6 23 0 10 -6 23 -6 34 0 10 6 19 5 23 -1 4 -6 15 -6 30 0 15 6
25 6 25 0 0 -5 12 -5 28 -1 15 5 37 5 49 0 13 -5 25 -4 28 2 4 6 13 6 23 0 10
-6 23 -6 34 0 10 6 19 5 23 -1 4 -7 12 -7 25 0 13 7 21 7 25 0 4 -7 12 -7 25
0 12 6 21 7 25 0 3 -5 15 -6 28 -1 12 5 34 5 49 0 16 -4 28 -4 28 1 0 6 10 6
25 0 15 -6 26 -6 30 1 4 6 13 6 23 0 10 -6 23 -6 34 0 10 6 19 5 23 -1 3 -5
15 -6 28 -1 12 5 34 5 49 0 16 -4 28 -4 28 1 0 6 10 6 25 0 15 -6 26 -6 30 1
4 6 13 6 23 0 10 -6 23 -6 34 0 10 6 19 5 23 -1 3 -5 15 -6 28 -1 12 5 34 5
49 0 16 -4 30 -3 33 2 4 5 13 5 24 -1 10 -5 21 -7 24 -4 7 8 163 8 176 0 6 -4
11 -3 11 3 0 7 8 7 25 1 15 -6 26 -6 30 1 4 6 13 6 23 0 10 -6 23 -6 34 0 10
6 19 5 23 -1 3 -5 15 -6 28 -1 12 5 34 5 49 0 16 -4 28 -4 28 1 0 6 10 6 25 0
15 -6 26 -6 30 1 4 6 13 6 23 0 10 -6 23 -6 34 0 10 6 19 5 23 -1 3 -5 15 -6
28 -1 12 5 34 5 49 0 16 -4 28 -4 28 1 0 6 10 6 25 0 15 -6 27 -6 30 0 3 6 15
6 30 0 15 -6 27 -6 30 1 4 6 13 6 23 0 10 -6 23 -6 34 0 10 6 19 5 23 -1 4 -6
15 -6 30 0 15 6 25 6 25 0 0 -5 12 -5 28 -1 15 5 37 5 49 0 13 -5 25 -4 28 1
4 6 13 7 24 1 10 -6 23 -6 31 -1 8 5 18 6 24 3 14 -9 67 -9 73 0 2 4 13 3 23
-3 13 -7 21 -7 25 0 5 8 11 8 19 1 7 -6 15 -9 18 -6 8 8 184 9 196 1 6 -3 13
-2 17 4 4 6 11 7 18 3 6 -3 36 -8 66 -10 67 -5 116 -10 116 -13 0 -1 14 -4 30
-6 86 -14 345 -123 345 -145 0 -5 6 -9 13 -9 13 0 50 -31 134 -111 119 -112
202 -279 218 -434 6 -55 9 -248 4 -270 -1 -6 -1 -12 1 -15 4 -12 5 -80 0 -80
-3 0 -5 -16 -5 -35 0 -19 3 -35 7 -35 4 0 3 -13 -2 -30 -5 -19 -5 -30 1 -30 6
0 8 -4 5 -8 -2 -4 -7 -64 -10 -133 -3 -68 -12 -167 -21 -219 -19 -120 -21
-129 -34 -162 -6 -16 -9 -28 -7 -28 5 0 -37 -132 -67 -213 -31 -80 -107 -236
-124 -255 -6 -6 -15 -21 -18 -32 -3 -11 -11 -20 -17 -20 -6 0 -8 -3 -5 -6 4
-4 -7 -24 -23 -44 -17 -21 -30 -41 -30 -44 0 -6 -25 -38 -52 -68 -10 -10 -16
-18 -13 -18 9 0 -61 -76 -155 -170 -140 -140 -258 -229 -435 -327 -72 -40
-229 -112 -255 -117 -8 -2 -24 -6 -35 -10 -56 -21 -136 -45 -177 -53 -10 -2
-28 -5 -40 -7 -13 -3 -23 -5 -23 -6 0 -3 -41 -10 -85 -15 -25 -3 -52 -8 -60
-10 -14 -4 -214 -17 -250 -16 -8 0 -62 0 -120 0 -58 0 -112 0 -120 0 -139 2
-373 0 -380 -4 -5 -3 -11 -1 -15 5 -4 6 -10 8 -15 5 -7 -4 -123 -6 -240 -4 -8
1 -26 0 -40 -1 -28 -3 -226 8 -256 14 -10 2 -39 7 -64 10 -50 7 -84 13 -87 16
-2 2 -11 3 -20 5 -28 3 -74 15 -118 30 -22 8 -49 16 -60 18 -11 2 -33 9 -48
15 -16 7 -32 12 -37 12 -5 0 -37 13 -72 29 -35 16 -73 32 -85 36 -13 3 -23 11
-23 16 0 5 -8 9 -18 9 -10 0 -22 4 -27 9 -6 5 -32 21 -60 36 -27 15 -71 43
-98 61 -26 19 -50 34 -53 34 -3 0 -11 6 -18 13 -7 6 -28 23 -46 37 -19 14 -47
36 -64 50 -42 33 -215 208 -246 248 -14 18 -30 38 -36 45 -31 36 -94 128 -94
137 0 5 -3 10 -7 10 -5 0 -17 18 -27 40 -11 22 -24 40 -29 40 -6 0 -8 3 -4 6
3 3 -8 28 -24 55 -16 28 -29 52 -29 54 0 3 -14 35 -31 71 -41 90 -95 254 -113
346 -20 101 -25 130 -31 178 -3 30 -8 90 -10 133 -2 44 -6 81 -8 84 -3 2 -1
18 3 34 5 16 5 29 0 29 -5 0 -5 13 0 30 5 17 6 30 2 30 -7 0 -7 134 -1 227 2
23 0 45 -3 48 -3 4 -2 20 2 36 5 18 5 29 -1 29 -6 0 -8 4 -4 9 3 5 7 40 9 78
5 79 9 96 36 179 48 143 164 290 305 387 33 22 63 45 67 51 4 6 8 8 8 4 0 -4
30 8 68 26 112 56 256 94 384 100 32 2 61 6 65 9 3 4 11 3 17 -2 6 -5 20 -5
31 -1z"/>
<path d="M4157 7984 c-6 -10 -37 -99 -42 -119 -1 -5 -5 -17 -8 -25 -9 -23 -59
-174 -62 -185 -1 -5 -5 -17 -8 -25 -10 -25 -69 -204 -71 -215 -1 -5 -4 -14 -8
-20 -3 -5 -11 -28 -17 -50 -6 -22 -16 -48 -23 -56 -7 -9 -157 -64 -334 -122
-177 -59 -334 -111 -350 -118 -27 -10 -8 -18 256 -106 157 -52 290 -96 295
-98 6 -1 21 -7 35 -12 14 -6 39 -14 57 -17 17 -4 36 -13 41 -19 8 -12 37 -95
37 -109 0 -3 3 -10 8 -14 4 -4 7 -16 7 -26 0 -10 5 -18 11 -18 5 0 8 -4 5 -8
-2 -4 35 -127 84 -272 80 -239 90 -262 99 -237 16 41 63 181 65 192 1 6 5 15
8 21 4 6 9 21 12 35 2 13 12 41 20 62 9 20 14 37 11 37 -3 0 2 11 11 25 9 14
14 25 11 25 -10 0 91 282 103 290 7 4 167 59 356 121 189 63 344 116 344 119
0 3 -157 56 -348 119 -191 63 -352 119 -358 125 -6 6 -26 58 -44 116 -18 58
-38 111 -43 118 -5 6 -7 12 -4 12 3 0 -12 51 -34 113 -21 61 -40 114 -40 117
-3 11 -8 27 -29 89 -12 35 -23 68 -25 75 -1 6 -5 18 -8 26 -3 8 -7 22 -9 30
-3 8 -7 10 -11 4z"/>
<path d="M2967 3803 c-2 -1 -28 -5 -58 -9 -29 -3 -58 -8 -62 -11 -4 -3 -24 -7
-45 -9 -20 -2 -69 -13 -108 -24 -39 -10 -81 -21 -95 -24 -27 -5 -163 -50 -206
-68 -15 -6 -32 -12 -38 -13 -18 -5 -210 -88 -215 -94 -3 -3 -39 -23 -80 -43
-113 -56 -354 -214 -416 -272 -7 -6 -31 -27 -55 -46 -56 -44 -263 -250 -314
-313 -22 -27 -44 -54 -50 -60 -46 -55 -85 -107 -85 -115 0 -6 -4 -12 -8 -14
-18 -7 -232 -360 -232 -382 0 -2 -12 -30 -27 -62 -15 -33 -27 -61 -28 -64 -1
-3 -8 -21 -17 -40 -8 -19 -25 -66 -37 -105 -13 -38 -29 -84 -37 -102 -8 -17
-14 -35 -13 -40 1 -4 0 -10 -1 -13 -2 -6 -5 -16 -20 -80 -22 -87 -27 -108 -34
-151 -3 -19 -8 -43 -10 -55 -4 -20 -12 -79 -23 -172 -3 -26 -7 -164 -9 -307
-3 -230 -1 -270 17 -345 10 -47 21 -95 24 -108 3 -13 26 -64 50 -115 118 -241
305 -407 565 -499 30 -11 66 -21 80 -23 14 -2 48 -8 75 -14 56 -11 1737 -16
1748 -5 3 4 2 15 -3 25 -6 11 -6 20 -1 24 6 3 6 17 1 35 -5 17 -5 30 0 30 5 0
5 13 0 30 -5 18 -5 30 0 30 6 0 5 11 0 26 -6 14 -7 23 -2 21 9 -6 7 107 -2
121 -3 6 -2 13 3 17 6 3 7 15 2 28 -5 13 -5 30 0 39 6 11 5 19 -1 23 -7 4 -7
12 0 25 7 13 7 21 0 25 -6 4 -7 12 -1 22 5 9 5 29 1 45 -5 16 -5 28 0 28 6 0
6 10 0 25 -6 15 -6 26 0 30 7 4 6 13 0 26 -6 10 -7 19 -3 19 4 0 8 25 8 55 0
30 -3 55 -7 55 -4 0 -3 11 2 25 5 14 6 25 2 25 -4 0 -7 14 -7 30 0 17 2 30 5
30 7 0 4 59 -3 66 -3 4 -2 14 3 23 5 10 5 23 0 31 -5 8 -5 21 1 31 5 10 6 20
2 22 -6 4 -9 72 -3 72 1 0 2 15 3 33 1 17 -2 32 -6 32 -5 0 -6 4 -2 9 3 5 7
43 9 83 5 82 22 162 43 195 8 12 13 23 11 25 -8 8 67 122 113 172 43 47 167
140 188 141 3 1 15 6 26 12 39 21 131 44 199 49 39 2 72 6 74 9 3 2 13 0 23
-5 11 -6 20 -6 24 -1 3 5 17 6 33 2 15 -5 37 -4 50 0 13 5 22 4 22 -1 0 -6 9
-6 23 -1 13 5 30 5 39 0 11 -6 19 -5 23 1 4 7 12 7 25 0 11 -6 21 -6 25 -1 3
5 17 6 33 2 15 -5 37 -4 50 0 13 5 22 4 22 -1 0 -6 9 -6 23 -1 13 5 30 5 39 0
11 -6 19 -5 23 1 4 7 12 7 25 0 11 -6 21 -6 25 -1 3 5 17 6 33 2 15 -5 37 -4
50 0 13 5 22 4 22 -1 0 -6 9 -6 25 0 16 6 25 6 25 0 0 -6 9 -6 25 0 15 6 26 6
30 0 4 -7 13 -6 25 0 13 7 21 7 25 0 4 -7 12 -7 24 0 10 5 21 7 25 3 7 -8 112
-7 125 1 5 4 12 2 16 -4 4 -7 12 -7 25 0 13 7 21 7 25 0 4 -7 12 -7 24 0 10 5
21 7 25 3 7 -8 112 -7 125 1 5 4 12 2 15 -2 3 -5 26 -6 51 -2 25 4 48 3 51 -2
3 -5 11 -5 18 1 7 6 17 6 26 1 8 -5 18 -6 24 -3 14 9 67 9 73 0 2 -4 13 -3 23
3 13 7 21 7 25 0 4 -7 12 -7 24 0 10 5 21 7 25 3 7 -8 112 -7 125 1 5 4 12 2
16 -4 4 -7 12 -7 25 0 13 7 21 7 25 0 4 -6 12 -7 23 -1 9 5 26 5 39 0 13 -5
25 -4 28 1 4 7 13 6 25 0 11 -6 21 -6 25 -1 3 5 17 6 33 2 15 -5 37 -4 50 0
13 5 22 4 22 -1 0 -6 9 -6 23 -1 13 5 30 5 39 0 11 -6 19 -5 23 1 4 7 12 7 25
0 11 -6 21 -6 25 -1 3 5 17 6 33 2 15 -5 37 -4 50 0 13 5 22 4 22 -1 0 -6 9
-6 23 -1 13 5 30 5 39 0 11 -6 19 -5 23 1 4 7 12 7 25 0 12 -6 21 -7 25 0 3 5
12 7 19 4 22 -8 96 -10 96 -2 0 4 6 5 13 3 6 -2 46 -6 88 -9 42 -2 101 -12
132 -21 31 -9 58 -15 61 -13 2 2 13 -6 25 -16 12 -11 21 -16 21 -13 0 18 113
-66 176 -129 51 -51 84 -96 112 -153 23 -45 41 -82 41 -84 -1 -1 4 -22 11 -47
7 -25 14 -76 15 -113 2 -38 6 -71 9 -74 3 -4 1 -12 -5 -19 -6 -8 -6 -14 0 -18
6 -4 6 -18 1 -36 -5 -18 -5 -30 0 -30 6 0 6 -10 0 -25 -6 -15 -6 -26 0 -30 6
-4 7 -13 1 -24 -6 -10 -6 -23 -1 -31 5 -8 5 -21 -1 -31 -6 -12 -5 -20 1 -24 7
-5 8 -11 1 -19 -6 -7 -6 -17 -1 -26 5 -8 6 -18 3 -24 -9 -14 -9 -66 -1 -66 4
0 3 -11 -2 -25 -6 -16 -6 -25 0 -25 6 0 6 -9 0 -25 -6 -17 -6 -25 1 -25 6 0 7
-4 4 -10 -9 -14 -10 -114 -2 -127 4 -7 3 -14 -2 -18 -6 -3 -7 -15 -2 -28 5
-13 5 -30 0 -39 -6 -11 -5 -19 1 -23 7 -4 7 -12 0 -25 -7 -13 -7 -21 0 -25 6
-4 7 -12 1 -22 -5 -9 -5 -29 -1 -45 5 -16 5 -28 0 -28 -6 0 -5 -11 0 -26 6
-14 7 -23 2 -21 -4 3 -7 -19 -7 -49 0 -30 3 -54 7 -54 4 0 4 -10 -1 -22 -5
-13 -5 -33 0 -45 5 -14 5 -23 -1 -23 -5 0 -5 -12 0 -30 5 -18 5 -32 -1 -35 -5
-4 -5 -13 1 -24 5 -10 6 -21 3 -25 -4 -3 376 -6 843 -6 852 1 861 1 1010 34
51 11 185 71 252 112 95 60 211 170 276 263 54 78 116 198 116 225 0 8 4 17 9
20 5 3 12 20 15 38 3 18 9 44 11 58 22 102 26 168 20 405 -3 143 -8 276 -10
295 -7 56 -14 103 -21 130 -3 14 -6 32 -6 40 0 8 -14 71 -30 140 -16 69 -31
130 -32 135 -3 13 -36 116 -43 135 -4 8 -7 17 -8 20 -1 3 -5 14 -10 25 -4 11
-21 53 -36 92 -34 86 -105 230 -162 328 -52 88 -147 229 -159 233 -4 2 -8 8
-8 14 0 11 -98 131 -111 136 -5 2 -9 8 -9 14 0 6 -57 67 -128 137 -126 125
-167 162 -232 211 -18 14 -38 30 -44 35 -27 23 -205 143 -258 174 -21 11 -55
31 -75 43 -51 29 -156 80 -223 109 -30 12 -58 28 -62 33 -4 6 -8 8 -8 4 0 -4
-30 5 -67 19 -116 44 -293 94 -418 117 -249 47 -226 48 -341 -22 -124 -76
-344 -189 -471 -242 -54 -23 -107 -45 -118 -50 -110 -48 -462 -154 -584 -175
-19 -3 -37 -7 -40 -9 -3 -2 -26 -7 -51 -10 -25 -3 -58 -9 -75 -12 -45 -9 -64
-12 -125 -18 -30 -4 -64 -8 -75 -11 -40 -8 -193 -19 -282 -19 -51 -1 -93 -4
-93 -8 0 -4 -12 -3 -27 3 -16 6 -30 10 -33 9 -3 -2 -15 -6 -28 -11 -13 -5 -21
-6 -19 -1 3 4 -38 7 -91 8 -126 0 -345 20 -442 39 -14 2 -40 7 -57 10 -18 3
-48 7 -65 10 -39 6 -91 18 -208 46 -90 21 -99 24 -228 65 -45 14 -88 27 -95
28 -7 2 -21 7 -32 11 -111 44 -140 55 -152 55 -7 0 -13 5 -13 12 0 6 -3 9 -6
6 -11 -11 -337 144 -461 218 -40 24 -77 44 -82 44 -5 0 -11 4 -13 8 -9 23 -79
53 -118 50 -22 -1 -42 -3 -43 -5z"/>
<path d="M4085 1270 c-131 -30 -236 -155 -239 -282 -1 -32 -4 -58 -8 -58 -4 0
-3 -13 2 -30 5 -17 5 -30 0 -30 -5 0 -5 -13 0 -30 5 -17 5 -30 0 -30 -5 0 -5
-13 0 -30 5 -17 5 -30 0 -30 -5 0 -5 -13 0 -30 5 -17 5 -30 0 -30 -5 0 -5 -13
0 -30 5 -17 5 -30 0 -30 -5 0 -5 -13 0 -30 5 -17 5 -30 0 -30 -5 0 -5 -13 0
-30 5 -17 5 -30 0 -30 -5 0 -5 -13 0 -30 5 -17 5 -30 0 -30 -5 0 -5 -13 0 -30
5 -17 5 -30 0 -30 -5 0 -5 -13 0 -30 5 -17 5 -30 0 -30 -5 0 -5 -13 0 -30 5
-17 5 -30 0 -30 -5 0 -5 -13 0 -30 5 -17 5 -30 0 -30 -5 0 -5 -12 -1 -28 5
-15 5 -37 0 -49 -5 -13 -4 -25 1 -28 6 -4 7 -13 1 -24 -5 -9 -6 -23 -2 -30 5
-7 6 -22 4 -32 -5 -18 6 -19 314 -19 l319 0 3 27 c1 16 2 35 2 43 -1 8 -1 26
0 40 0 14 0 32 0 40 -1 8 -1 26 0 40 0 14 0 32 0 40 -1 8 -1 26 0 40 0 14 0
32 0 40 -1 8 -1 26 0 40 0 14 0 32 0 40 -1 8 -1 26 0 40 0 14 0 32 0 40 -1 8
-1 26 0 40 0 14 0 32 0 40 -2 26 -1 54 3 75 1 11 0 34 -4 51 -4 18 -4 37 0 44
4 7 4 24 1 39 -4 14 -4 43 -1 63 4 22 3 38 -2 38 -5 0 -7 4 -4 8 11 18 5 150
-9 187 -33 89 -90 155 -169 194 -51 25 -152 35 -211 21z"/>
<path d="M5973 1260 c-29 -10 -60 -24 -69 -32 -60 -48 -120 -128 -128 -170 -3
-13 -5 -24 -7 -25 -1 -2 -2 -6 -3 -10 -1 -5 -4 -13 -8 -19 -4 -6 -5 -14 -2
-17 3 -3 8 -31 10 -62 2 -32 13 -76 26 -102 26 -53 91 -122 131 -140 15 -7 39
-18 53 -25 25 -12 150 -16 189 -7 78 19 166 94 205 174 34 73 34 200 0 270
-40 80 -105 137 -195 170 -43 16 -150 13 -202 -5z"/>
</g>
</svg>
